<?xml version="1.0" encoding="utf-8" standalone="no"?>
<!DOCTYPE svg PUBLIC "-//W3C//DTD SVG 1.1//EN"
  "http://www.w3.org/Graphics/SVG/1.1/DTD/svg11.dtd">
<!-- Created with matplotlib (http://matplotlib.org/) -->
<svg height="432pt" version="1.1" viewBox="0 0 576 432" width="576pt" xmlns="http://www.w3.org/2000/svg" xmlns:xlink="http://www.w3.org/1999/xlink">
 <defs>
  <style type="text/css">
*{stroke-linecap:butt;stroke-linejoin:round;stroke-miterlimit:100000;}
  </style>
 </defs>
 <g id="figure_1">
  <g id="patch_1">
   <path d="M 0 432 
L 576 432 
L 576 0 
L 0 0 
z
" style="fill:none;opacity:0;"/>
  </g>
  <g id="axes_1">
   <g id="patch_2">
    <path d="M 72 388.8 
L 518.4 388.8 
L 518.4 43.2 
L 72 43.2 
z
" style="fill:#ffffff;"/>
   </g>
   <g id="patch_3">
    <path clip-path="url(#pcc6799f02e)" d="M 416.454491 286.985309 
Q 429.07594 270.58304 403.701585 276.395511 
Q 378.32723 282.207981 390.948679 265.805712 
Q 403.570128 249.403443 378.195772 255.215914 
" style="fill:none;stroke:#000000;stroke-linejoin:miter;stroke-width:2.0;"/>
   </g>
   <g id="patch_4">
    <path clip-path="url(#pcc6799f02e)" d="M 121.6 285.12 
L 320 285.12 
L 419.2 216 
L 220.8 216 
L 121.6 285.12 
" style="fill:none;stroke:#000000;stroke-linejoin:miter;stroke-width:2.0;"/>
   </g>
   <g id="patch_5">
    <path clip-path="url(#pcc6799f02e)" d="M 314.94368 147.557777 
L 305.21632 146.202223 
L 285.37632 215.322223 
L 275.64896 213.966668 
L 285.28 233.28 
L 304.83104 218.033332 
L 295.10368 216.677777 
z
" style="fill:#0000ff;"/>
   </g>
   <g id="patch_6">
    <path clip-path="url(#pcc6799f02e)" d="M 179.170174 233.715032 
C 149.094924 291.657825 246.787853 274.431926 198.70876 230.269852 
L 183.705557 145.182462 
Q 173.336136 143.501556 164.166972 148.627642 
L 179.170174 233.715032 
" style="fill:#ff0000;stroke:#000000;stroke-linejoin:miter;"/>
   </g>
   <g id="patch_7">
    <path clip-path="url(#pcc6799f02e)" d="M 164.166972 148.627642 
L 158.165691 114.592686 
C 155.765178 100.978703 175.303764 97.533524 177.704276 111.147506 
L 183.705557 145.182462 
" style="fill:none;stroke:#000000;stroke-linejoin:miter;"/>
   </g>
   <g id="patch_8">
    <path d="M 72 388.8 
L 72 43.2 
" style="fill:none;stroke:#000000;stroke-linecap:square;stroke-linejoin:miter;"/>
   </g>
   <g id="patch_9">
    <path d="M 72 388.8 
L 518.4 388.8 
" style="fill:none;stroke:#000000;stroke-linecap:square;stroke-linejoin:miter;"/>
   </g>
   <g id="patch_10">
    <path d="M 72 43.2 
L 518.4 43.2 
" style="fill:none;stroke:#000000;stroke-linecap:square;stroke-linejoin:miter;"/>
   </g>
   <g id="patch_11">
    <path d="M 518.4 388.8 
L 518.4 43.2 
" style="fill:none;stroke:#000000;stroke-linecap:square;stroke-linejoin:miter;"/>
   </g>
   <g id="matplotlib.axis_1"/>
   <g id="matplotlib.axis_2"/>
   <g id="text_1">
    <!-- ABSORBER -->
    <defs>
     <path d="M 39.40625 66.21875 
Q 28.65625 66.21875 22.328125 58.203125 
Q 16.015625 50.203125 16.015625 36.375 
Q 16.015625 22.609375 22.328125 14.59375 
Q 28.65625 6.59375 39.40625 6.59375 
Q 50.140625 6.59375 56.421875 14.59375 
Q 62.703125 22.609375 62.703125 36.375 
Q 62.703125 50.203125 56.421875 58.203125 
Q 50.140625 66.21875 39.40625 66.21875 
M 39.40625 74.21875 
Q 54.734375 74.21875 63.90625 63.9375 
Q 73.09375 53.65625 73.09375 36.375 
Q 73.09375 19.140625 63.90625 8.859375 
Q 54.734375 -1.421875 39.40625 -1.421875 
Q 24.03125 -1.421875 14.8125 8.828125 
Q 5.609375 19.09375 5.609375 36.375 
Q 5.609375 53.65625 14.8125 63.9375 
Q 24.03125 74.21875 39.40625 74.21875 
" id="BitstreamVeraSans-Roman-4f"/>
     <path d="M 34.1875 63.1875 
L 20.796875 26.90625 
L 47.609375 26.90625 
z
M 28.609375 72.90625 
L 39.796875 72.90625 
L 67.578125 0 
L 57.328125 0 
L 50.6875 18.703125 
L 17.828125 18.703125 
L 11.1875 0 
L 0.78125 0 
z
" id="BitstreamVeraSans-Roman-41"/>
     <path d="M 44.390625 34.1875 
Q 47.5625 33.109375 50.5625 29.59375 
Q 53.5625 26.078125 56.59375 19.921875 
L 66.609375 0 
L 56 0 
L 46.6875 18.703125 
Q 43.0625 26.03125 39.671875 28.421875 
Q 36.28125 30.8125 30.421875 30.8125 
L 19.671875 30.8125 
L 19.671875 0 
L 9.8125 0 
L 9.8125 72.90625 
L 32.078125 72.90625 
Q 44.578125 72.90625 50.734375 67.671875 
Q 56.890625 62.453125 56.890625 51.90625 
Q 56.890625 45.015625 53.6875 40.46875 
Q 50.484375 35.9375 44.390625 34.1875 
M 19.671875 64.796875 
L 19.671875 38.921875 
L 32.078125 38.921875 
Q 39.203125 38.921875 42.84375 42.21875 
Q 46.484375 45.515625 46.484375 51.90625 
Q 46.484375 58.296875 42.84375 61.546875 
Q 39.203125 64.796875 32.078125 64.796875 
z
" id="BitstreamVeraSans-Roman-52"/>
     <path d="M 19.671875 34.8125 
L 19.671875 8.109375 
L 35.5 8.109375 
Q 43.453125 8.109375 47.28125 11.40625 
Q 51.125 14.703125 51.125 21.484375 
Q 51.125 28.328125 47.28125 31.5625 
Q 43.453125 34.8125 35.5 34.8125 
z
M 19.671875 64.796875 
L 19.671875 42.828125 
L 34.28125 42.828125 
Q 41.5 42.828125 45.03125 45.53125 
Q 48.578125 48.25 48.578125 53.8125 
Q 48.578125 59.328125 45.03125 62.0625 
Q 41.5 64.796875 34.28125 64.796875 
z
M 9.8125 72.90625 
L 35.015625 72.90625 
Q 46.296875 72.90625 52.390625 68.21875 
Q 58.5 63.53125 58.5 54.890625 
Q 58.5 48.1875 55.375 44.234375 
Q 52.25 40.28125 46.1875 39.3125 
Q 53.46875 37.75 57.5 32.78125 
Q 61.53125 27.828125 61.53125 20.40625 
Q 61.53125 10.640625 54.890625 5.3125 
Q 48.25 0 35.984375 0 
L 9.8125 0 
z
" id="BitstreamVeraSans-Roman-42"/>
     <path d="M 9.8125 72.90625 
L 55.90625 72.90625 
L 55.90625 64.59375 
L 19.671875 64.59375 
L 19.671875 43.015625 
L 54.390625 43.015625 
L 54.390625 34.71875 
L 19.671875 34.71875 
L 19.671875 8.296875 
L 56.78125 8.296875 
L 56.78125 0 
L 9.8125 0 
z
" id="BitstreamVeraSans-Roman-45"/>
     <path d="M 53.515625 70.515625 
L 53.515625 60.890625 
Q 47.90625 63.578125 42.921875 64.890625 
Q 37.9375 66.21875 33.296875 66.21875 
Q 25.25 66.21875 20.875 63.09375 
Q 16.5 59.96875 16.5 54.203125 
Q 16.5 49.359375 19.40625 46.890625 
Q 22.3125 44.4375 30.421875 42.921875 
L 36.375 41.703125 
Q 47.40625 39.59375 52.65625 34.296875 
Q 57.90625 29 57.90625 20.125 
Q 57.90625 9.515625 50.796875 4.046875 
Q 43.703125 -1.421875 29.984375 -1.421875 
Q 24.8125 -1.421875 18.96875 -0.25 
Q 13.140625 0.921875 6.890625 3.21875 
L 6.890625 13.375 
Q 12.890625 10.015625 18.65625 8.296875 
Q 24.421875 6.59375 29.984375 6.59375 
Q 38.421875 6.59375 43.015625 9.90625 
Q 47.609375 13.234375 47.609375 19.390625 
Q 47.609375 24.75 44.3125 27.78125 
Q 41.015625 30.8125 33.5 32.328125 
L 27.484375 33.5 
Q 16.453125 35.6875 11.515625 40.375 
Q 6.59375 45.0625 6.59375 53.421875 
Q 6.59375 63.09375 13.40625 68.65625 
Q 20.21875 74.21875 32.171875 74.21875 
Q 37.3125 74.21875 42.625 73.28125 
Q 47.953125 72.359375 53.515625 70.515625 
" id="BitstreamVeraSans-Roman-53"/>
    </defs>
    <g transform="translate(245.6 250.56)scale(0.12 -0.12)">
     <use xlink:href="#BitstreamVeraSans-Roman-41"/>
     <use x="68.408203125" xlink:href="#BitstreamVeraSans-Roman-42"/>
     <use x="136.99609375" xlink:href="#BitstreamVeraSans-Roman-53"/>
     <use x="200.47265625" xlink:href="#BitstreamVeraSans-Roman-4f"/>
     <use x="279.18359375" xlink:href="#BitstreamVeraSans-Roman-52"/>
     <use x="348.666015625" xlink:href="#BitstreamVeraSans-Roman-42"/>
     <use x="417.26953125" xlink:href="#BitstreamVeraSans-Roman-45"/>
     <use x="480.453125" xlink:href="#BitstreamVeraSans-Roman-52"/>
    </g>
   </g>
   <g id="text_2">
    <!-- THERMOMETER -->
    <defs>
     <path d="M 9.8125 72.90625 
L 19.671875 72.90625 
L 19.671875 43.015625 
L 55.515625 43.015625 
L 55.515625 72.90625 
L 65.375 72.90625 
L 65.375 0 
L 55.515625 0 
L 55.515625 34.71875 
L 19.671875 34.71875 
L 19.671875 0 
L 9.8125 0 
z
" id="BitstreamVeraSans-Roman-48"/>
     <path d="M -0.296875 72.90625 
L 61.375 72.90625 
L 61.375 64.59375 
L 35.5 64.59375 
L 35.5 0 
L 25.59375 0 
L 25.59375 64.59375 
L -0.296875 64.59375 
z
" id="BitstreamVeraSans-Roman-54"/>
     <path d="M 9.8125 72.90625 
L 24.515625 72.90625 
L 43.109375 23.296875 
L 61.8125 72.90625 
L 76.515625 72.90625 
L 76.515625 0 
L 66.890625 0 
L 66.890625 64.015625 
L 48.09375 14.015625 
L 38.1875 14.015625 
L 19.390625 64.015625 
L 19.390625 0 
L 9.8125 0 
z
" id="BitstreamVeraSans-Roman-4d"/>
    </defs>
    <g transform="translate(121.6 174.528)scale(0.12 -0.12)">
     <use xlink:href="#BitstreamVeraSans-Roman-54"/>
     <use x="61.083984375" xlink:href="#BitstreamVeraSans-Roman-48"/>
     <use x="136.279296875" xlink:href="#BitstreamVeraSans-Roman-45"/>
     <use x="199.462890625" xlink:href="#BitstreamVeraSans-Roman-52"/>
     <use x="268.9453125" xlink:href="#BitstreamVeraSans-Roman-4d"/>
     <use x="355.224609375" xlink:href="#BitstreamVeraSans-Roman-4f"/>
     <use x="433.935546875" xlink:href="#BitstreamVeraSans-Roman-4d"/>
     <use x="520.21484375" xlink:href="#BitstreamVeraSans-Roman-45"/>
     <use x="583.3984375" xlink:href="#BitstreamVeraSans-Roman-54"/>
     <use x="644.482421875" xlink:href="#BitstreamVeraSans-Roman-45"/>
     <use x="707.666015625" xlink:href="#BitstreamVeraSans-Roman-52"/>
    </g>
   </g>
   <g id="text_3">
    <!-- PARTICLES -->
    <defs>
     <path d="M 19.671875 64.796875 
L 19.671875 37.40625 
L 32.078125 37.40625 
Q 38.96875 37.40625 42.71875 40.96875 
Q 46.484375 44.53125 46.484375 51.125 
Q 46.484375 57.671875 42.71875 61.234375 
Q 38.96875 64.796875 32.078125 64.796875 
z
M 9.8125 72.90625 
L 32.078125 72.90625 
Q 44.34375 72.90625 50.609375 67.359375 
Q 56.890625 61.8125 56.890625 51.125 
Q 56.890625 40.328125 50.609375 34.8125 
Q 44.34375 29.296875 32.078125 29.296875 
L 19.671875 29.296875 
L 19.671875 0 
L 9.8125 0 
z
" id="BitstreamVeraSans-Roman-50"/>
     <path d="M 9.8125 72.90625 
L 19.671875 72.90625 
L 19.671875 8.296875 
L 55.171875 8.296875 
L 55.171875 0 
L 9.8125 0 
z
" id="BitstreamVeraSans-Roman-4c"/>
     <path d="M 9.8125 72.90625 
L 19.671875 72.90625 
L 19.671875 0 
L 9.8125 0 
z
" id="BitstreamVeraSans-Roman-49"/>
     <path d="M 64.40625 67.28125 
L 64.40625 56.890625 
Q 59.421875 61.53125 53.78125 63.8125 
Q 48.140625 66.109375 41.796875 66.109375 
Q 29.296875 66.109375 22.65625 58.46875 
Q 16.015625 50.828125 16.015625 36.375 
Q 16.015625 21.96875 22.65625 14.328125 
Q 29.296875 6.6875 41.796875 6.6875 
Q 48.140625 6.6875 53.78125 8.984375 
Q 59.421875 11.28125 64.40625 15.921875 
L 64.40625 5.609375 
Q 59.234375 2.09375 53.4375 0.328125 
Q 47.65625 -1.421875 41.21875 -1.421875 
Q 24.65625 -1.421875 15.125 8.703125 
Q 5.609375 18.84375 5.609375 36.375 
Q 5.609375 53.953125 15.125 64.078125 
Q 24.65625 74.21875 41.21875 74.21875 
Q 47.75 74.21875 53.53125 72.484375 
Q 59.328125 70.75 64.40625 67.28125 
" id="BitstreamVeraSans-Roman-43"/>
    </defs>
    <g transform="translate(275.36 164.16)scale(0.12 -0.12)">
     <use xlink:href="#BitstreamVeraSans-Roman-50"/>
     <use x="60.208984375" xlink:href="#BitstreamVeraSans-Roman-41"/>
     <use x="128.6171875" xlink:href="#BitstreamVeraSans-Roman-52"/>
     <use x="197.990234375" xlink:href="#BitstreamVeraSans-Roman-54"/>
     <use x="259.07421875" xlink:href="#BitstreamVeraSans-Roman-49"/>
     <use x="288.56640625" xlink:href="#BitstreamVeraSans-Roman-43"/>
     <use x="358.390625" xlink:href="#BitstreamVeraSans-Roman-4c"/>
     <use x="414.103515625" xlink:href="#BitstreamVeraSans-Roman-45"/>
     <use x="477.287109375" xlink:href="#BitstreamVeraSans-Roman-53"/>
    </g>
   </g>
   <g id="text_4">
    <!-- HEAT SINK -->
    <defs>
     <path d="M 9.8125 72.90625 
L 23.09375 72.90625 
L 55.421875 11.921875 
L 55.421875 72.90625 
L 64.984375 72.90625 
L 64.984375 0 
L 51.703125 0 
L 19.390625 60.984375 
L 19.390625 0 
L 9.8125 0 
z
" id="BitstreamVeraSans-Roman-4e"/>
     <path d="M 9.8125 72.90625 
L 19.671875 72.90625 
L 19.671875 42.09375 
L 52.390625 72.90625 
L 65.09375 72.90625 
L 28.90625 38.921875 
L 67.671875 0 
L 54.6875 0 
L 19.671875 35.109375 
L 19.671875 0 
L 9.8125 0 
z
" id="BitstreamVeraSans-Roman-4b"/>
     <path id="BitstreamVeraSans-Roman-20"/>
    </defs>
    <g transform="translate(434.08 292.032)scale(0.12 -0.12)">
     <use xlink:href="#BitstreamVeraSans-Roman-48"/>
     <use x="75.1953125" xlink:href="#BitstreamVeraSans-Roman-45"/>
     <use x="138.37890625" xlink:href="#BitstreamVeraSans-Roman-41"/>
     <use x="206.677734375" xlink:href="#BitstreamVeraSans-Roman-54"/>
     <use x="267.76171875" xlink:href="#BitstreamVeraSans-Roman-20"/>
     <use x="299.548828125" xlink:href="#BitstreamVeraSans-Roman-53"/>
     <use x="363.025390625" xlink:href="#BitstreamVeraSans-Roman-49"/>
     <use x="392.517578125" xlink:href="#BitstreamVeraSans-Roman-4e"/>
     <use x="467.322265625" xlink:href="#BitstreamVeraSans-Roman-4b"/>
    </g>
   </g>
   <g id="text_5">
    <!-- MEASURES PARTICLE ENERGY VIA TEMPERATURE CHANGE -->
    <defs>
     <path d="M 8.6875 72.90625 
L 18.609375 72.90625 
L 18.609375 28.609375 
Q 18.609375 16.890625 22.84375 11.734375 
Q 27.09375 6.59375 36.625 6.59375 
Q 46.09375 6.59375 50.34375 11.734375 
Q 54.59375 16.890625 54.59375 28.609375 
L 54.59375 72.90625 
L 64.5 72.90625 
L 64.5 27.390625 
Q 64.5 13.140625 57.4375 5.859375 
Q 50.390625 -1.421875 36.625 -1.421875 
Q 22.796875 -1.421875 15.734375 5.859375 
Q 8.6875 13.140625 8.6875 27.390625 
z
" id="BitstreamVeraSans-Roman-55"/>
     <path d="M 59.515625 10.40625 
L 59.515625 29.984375 
L 43.40625 29.984375 
L 43.40625 38.09375 
L 69.28125 38.09375 
L 69.28125 6.78125 
Q 63.578125 2.734375 56.6875 0.65625 
Q 49.8125 -1.421875 42 -1.421875 
Q 24.90625 -1.421875 15.25 8.5625 
Q 5.609375 18.5625 5.609375 36.375 
Q 5.609375 54.25 15.25 64.234375 
Q 24.90625 74.21875 42 74.21875 
Q 49.125 74.21875 55.546875 72.453125 
Q 61.96875 70.703125 67.390625 67.28125 
L 67.390625 56.78125 
Q 61.921875 61.421875 55.765625 63.765625 
Q 49.609375 66.109375 42.828125 66.109375 
Q 29.4375 66.109375 22.71875 58.640625 
Q 16.015625 51.171875 16.015625 36.375 
Q 16.015625 21.625 22.71875 14.15625 
Q 29.4375 6.6875 42.828125 6.6875 
Q 48.046875 6.6875 52.140625 7.59375 
Q 56.25 8.5 59.515625 10.40625 
" id="BitstreamVeraSans-Roman-47"/>
     <path d="M 28.609375 0 
L 0.78125 72.90625 
L 11.078125 72.90625 
L 34.1875 11.53125 
L 57.328125 72.90625 
L 67.578125 72.90625 
L 39.796875 0 
z
" id="BitstreamVeraSans-Roman-56"/>
     <path d="M -0.203125 72.90625 
L 10.40625 72.90625 
L 30.609375 42.921875 
L 50.6875 72.90625 
L 61.28125 72.90625 
L 35.5 34.71875 
L 35.5 0 
L 25.59375 0 
L 25.59375 34.71875 
z
" id="BitstreamVeraSans-Roman-59"/>
    </defs>
    <g transform="translate(106.72 60.48)scale(0.12 -0.12)">
     <use xlink:href="#BitstreamVeraSans-Roman-4d"/>
     <use x="86.279296875" xlink:href="#BitstreamVeraSans-Roman-45"/>
     <use x="149.462890625" xlink:href="#BitstreamVeraSans-Roman-41"/>
     <use x="217.87109375" xlink:href="#BitstreamVeraSans-Roman-53"/>
     <use x="281.34765625" xlink:href="#BitstreamVeraSans-Roman-55"/>
     <use x="354.541015625" xlink:href="#BitstreamVeraSans-Roman-52"/>
     <use x="424.0234375" xlink:href="#BitstreamVeraSans-Roman-45"/>
     <use x="487.20703125" xlink:href="#BitstreamVeraSans-Roman-53"/>
     <use x="550.68359375" xlink:href="#BitstreamVeraSans-Roman-20"/>
     <use x="582.470703125" xlink:href="#BitstreamVeraSans-Roman-50"/>
     <use x="642.6796875" xlink:href="#BitstreamVeraSans-Roman-41"/>
     <use x="711.087890625" xlink:href="#BitstreamVeraSans-Roman-52"/>
     <use x="780.4609375" xlink:href="#BitstreamVeraSans-Roman-54"/>
     <use x="841.544921875" xlink:href="#BitstreamVeraSans-Roman-49"/>
     <use x="871.037109375" xlink:href="#BitstreamVeraSans-Roman-43"/>
     <use x="940.861328125" xlink:href="#BitstreamVeraSans-Roman-4c"/>
     <use x="996.57421875" xlink:href="#BitstreamVeraSans-Roman-45"/>
     <use x="1059.7578125" xlink:href="#BitstreamVeraSans-Roman-20"/>
     <use x="1091.544921875" xlink:href="#BitstreamVeraSans-Roman-45"/>
     <use x="1154.728515625" xlink:href="#BitstreamVeraSans-Roman-4e"/>
     <use x="1229.533203125" xlink:href="#BitstreamVeraSans-Roman-45"/>
     <use x="1292.716796875" xlink:href="#BitstreamVeraSans-Roman-52"/>
     <use x="1362.19921875" xlink:href="#BitstreamVeraSans-Roman-47"/>
     <use x="1439.611328125" xlink:href="#BitstreamVeraSans-Roman-59"/>
     <use x="1500.6953125" xlink:href="#BitstreamVeraSans-Roman-20"/>
     <use x="1532.482421875" xlink:href="#BitstreamVeraSans-Roman-56"/>
     <use x="1600.890625" xlink:href="#BitstreamVeraSans-Roman-49"/>
     <use x="1630.3828125" xlink:href="#BitstreamVeraSans-Roman-41"/>
     <use x="1698.791015625" xlink:href="#BitstreamVeraSans-Roman-20"/>
     <use x="1730.578125" xlink:href="#BitstreamVeraSans-Roman-54"/>
     <use x="1791.662109375" xlink:href="#BitstreamVeraSans-Roman-45"/>
     <use x="1854.845703125" xlink:href="#BitstreamVeraSans-Roman-4d"/>
     <use x="1941.125" xlink:href="#BitstreamVeraSans-Roman-50"/>
     <use x="2001.427734375" xlink:href="#BitstreamVeraSans-Roman-45"/>
     <use x="2064.611328125" xlink:href="#BitstreamVeraSans-Roman-52"/>
     <use x="2134.03125" xlink:href="#BitstreamVeraSans-Roman-41"/>
     <use x="2202.330078125" xlink:href="#BitstreamVeraSans-Roman-54"/>
     <use x="2263.4140625" xlink:href="#BitstreamVeraSans-Roman-55"/>
     <use x="2336.607421875" xlink:href="#BitstreamVeraSans-Roman-52"/>
     <use x="2406.08984375" xlink:href="#BitstreamVeraSans-Roman-45"/>
     <use x="2469.2734375" xlink:href="#BitstreamVeraSans-Roman-20"/>
     <use x="2501.060546875" xlink:href="#BitstreamVeraSans-Roman-43"/>
     <use x="2570.884765625" xlink:href="#BitstreamVeraSans-Roman-48"/>
     <use x="2646.080078125" xlink:href="#BitstreamVeraSans-Roman-41"/>
     <use x="2714.48828125" xlink:href="#BitstreamVeraSans-Roman-4e"/>
     <use x="2789.29296875" xlink:href="#BitstreamVeraSans-Roman-47"/>
     <use x="2866.783203125" xlink:href="#BitstreamVeraSans-Roman-45"/>
    </g>
   </g>
   <g id="text_6">
    <!-- TUNGSTEN THIN FILM -->
    <defs>
     <path d="M 9.8125 72.90625 
L 51.703125 72.90625 
L 51.703125 64.59375 
L 19.671875 64.59375 
L 19.671875 43.109375 
L 48.578125 43.109375 
L 48.578125 34.8125 
L 19.671875 34.8125 
L 19.671875 0 
L 9.8125 0 
z
" id="BitstreamVeraSans-Roman-46"/>
    </defs>
    <g transform="translate(220.8 336.96)scale(0.12 -0.12)">
     <use xlink:href="#BitstreamVeraSans-Roman-54"/>
     <use x="61.083984375" xlink:href="#BitstreamVeraSans-Roman-55"/>
     <use x="134.27734375" xlink:href="#BitstreamVeraSans-Roman-4e"/>
     <use x="209.08203125" xlink:href="#BitstreamVeraSans-Roman-47"/>
     <use x="286.572265625" xlink:href="#BitstreamVeraSans-Roman-53"/>
     <use x="350.048828125" xlink:href="#BitstreamVeraSans-Roman-54"/>
     <use x="411.1328125" xlink:href="#BitstreamVeraSans-Roman-45"/>
     <use x="474.31640625" xlink:href="#BitstreamVeraSans-Roman-4e"/>
     <use x="549.12109375" xlink:href="#BitstreamVeraSans-Roman-20"/>
     <use x="580.908203125" xlink:href="#BitstreamVeraSans-Roman-54"/>
     <use x="641.9921875" xlink:href="#BitstreamVeraSans-Roman-48"/>
     <use x="717.1875" xlink:href="#BitstreamVeraSans-Roman-49"/>
     <use x="746.6796875" xlink:href="#BitstreamVeraSans-Roman-4e"/>
     <use x="821.484375" xlink:href="#BitstreamVeraSans-Roman-20"/>
     <use x="853.271484375" xlink:href="#BitstreamVeraSans-Roman-46"/>
     <use x="910.791015625" xlink:href="#BitstreamVeraSans-Roman-49"/>
     <use x="940.283203125" xlink:href="#BitstreamVeraSans-Roman-4c"/>
     <use x="995.99609375" xlink:href="#BitstreamVeraSans-Roman-4d"/>
    </g>
   </g>
   <g id="text_7">
    <!-- ELECTRONS - THERMOMETER AND ABSORBER -->
    <defs>
     <path d="M 19.671875 64.796875 
L 19.671875 8.109375 
L 31.59375 8.109375 
Q 46.6875 8.109375 53.6875 14.9375 
Q 60.6875 21.78125 60.6875 36.53125 
Q 60.6875 51.171875 53.6875 57.984375 
Q 46.6875 64.796875 31.59375 64.796875 
z
M 9.8125 72.90625 
L 30.078125 72.90625 
Q 51.265625 72.90625 61.171875 64.09375 
Q 71.09375 55.28125 71.09375 36.53125 
Q 71.09375 17.671875 61.125 8.828125 
Q 51.171875 0 30.078125 0 
L 9.8125 0 
z
" id="BitstreamVeraSans-Roman-44"/>
     <path d="M 4.890625 31.390625 
L 31.203125 31.390625 
L 31.203125 23.390625 
L 4.890625 23.390625 
z
" id="BitstreamVeraSans-Roman-2d"/>
    </defs>
    <g transform="translate(146.4 361.152)scale(0.12 -0.12)">
     <use xlink:href="#BitstreamVeraSans-Roman-45"/>
     <use x="63.18359375" xlink:href="#BitstreamVeraSans-Roman-4c"/>
     <use x="118.896484375" xlink:href="#BitstreamVeraSans-Roman-45"/>
     <use x="182.080078125" xlink:href="#BitstreamVeraSans-Roman-43"/>
     <use x="251.904296875" xlink:href="#BitstreamVeraSans-Roman-54"/>
     <use x="312.98828125" xlink:href="#BitstreamVeraSans-Roman-52"/>
     <use x="382.470703125" xlink:href="#BitstreamVeraSans-Roman-4f"/>
     <use x="461.181640625" xlink:href="#BitstreamVeraSans-Roman-4e"/>
     <use x="535.986328125" xlink:href="#BitstreamVeraSans-Roman-53"/>
     <use x="599.462890625" xlink:href="#BitstreamVeraSans-Roman-20"/>
     <use x="631.25" xlink:href="#BitstreamVeraSans-Roman-2d"/>
     <use x="667.333984375" xlink:href="#BitstreamVeraSans-Roman-20"/>
     <use x="699.12109375" xlink:href="#BitstreamVeraSans-Roman-54"/>
     <use x="760.205078125" xlink:href="#BitstreamVeraSans-Roman-48"/>
     <use x="835.400390625" xlink:href="#BitstreamVeraSans-Roman-45"/>
     <use x="898.583984375" xlink:href="#BitstreamVeraSans-Roman-52"/>
     <use x="968.06640625" xlink:href="#BitstreamVeraSans-Roman-4d"/>
     <use x="1054.345703125" xlink:href="#BitstreamVeraSans-Roman-4f"/>
     <use x="1133.056640625" xlink:href="#BitstreamVeraSans-Roman-4d"/>
     <use x="1219.3359375" xlink:href="#BitstreamVeraSans-Roman-45"/>
     <use x="1282.51953125" xlink:href="#BitstreamVeraSans-Roman-54"/>
     <use x="1343.603515625" xlink:href="#BitstreamVeraSans-Roman-45"/>
     <use x="1406.787109375" xlink:href="#BitstreamVeraSans-Roman-52"/>
     <use x="1476.26953125" xlink:href="#BitstreamVeraSans-Roman-20"/>
     <use x="1508.056640625" xlink:href="#BitstreamVeraSans-Roman-41"/>
     <use x="1576.46484375" xlink:href="#BitstreamVeraSans-Roman-4e"/>
     <use x="1651.26953125" xlink:href="#BitstreamVeraSans-Roman-44"/>
     <use x="1728.271484375" xlink:href="#BitstreamVeraSans-Roman-20"/>
     <use x="1760.05859375" xlink:href="#BitstreamVeraSans-Roman-41"/>
     <use x="1828.466796875" xlink:href="#BitstreamVeraSans-Roman-42"/>
     <use x="1897.0546875" xlink:href="#BitstreamVeraSans-Roman-53"/>
     <use x="1960.53125" xlink:href="#BitstreamVeraSans-Roman-4f"/>
     <use x="2039.2421875" xlink:href="#BitstreamVeraSans-Roman-52"/>
     <use x="2108.724609375" xlink:href="#BitstreamVeraSans-Roman-42"/>
     <use x="2177.328125" xlink:href="#BitstreamVeraSans-Roman-45"/>
     <use x="2240.51171875" xlink:href="#BitstreamVeraSans-Roman-52"/>
    </g>
   </g>
   <g id="text_8">
    <!-- PHONONS - WEAK LINK BETWEEN ELECTRONS AND LATTICE (HEAT SINK) -->
    <defs>
     <path d="M 31 75.875 
Q 24.46875 64.65625 21.28125 53.65625 
Q 18.109375 42.671875 18.109375 31.390625 
Q 18.109375 20.125 21.3125 9.0625 
Q 24.515625 -2 31 -13.1875 
L 23.1875 -13.1875 
Q 15.875 -1.703125 12.234375 9.375 
Q 8.59375 20.453125 8.59375 31.390625 
Q 8.59375 42.28125 12.203125 53.3125 
Q 15.828125 64.359375 23.1875 75.875 
z
" id="BitstreamVeraSans-Roman-28"/>
     <path d="M 3.328125 72.90625 
L 13.28125 72.90625 
L 28.609375 11.28125 
L 43.890625 72.90625 
L 54.984375 72.90625 
L 70.3125 11.28125 
L 85.59375 72.90625 
L 95.609375 72.90625 
L 77.296875 0 
L 64.890625 0 
L 49.515625 63.28125 
L 33.984375 0 
L 21.578125 0 
z
" id="BitstreamVeraSans-Roman-57"/>
     <path d="M 8.015625 75.875 
L 15.828125 75.875 
Q 23.140625 64.359375 26.78125 53.3125 
Q 30.421875 42.28125 30.421875 31.390625 
Q 30.421875 20.453125 26.78125 9.375 
Q 23.140625 -1.703125 15.828125 -13.1875 
L 8.015625 -13.1875 
Q 14.5 -2 17.703125 9.0625 
Q 20.90625 20.125 20.90625 31.390625 
Q 20.90625 42.671875 17.703125 53.65625 
Q 14.5 64.65625 8.015625 75.875 
" id="BitstreamVeraSans-Roman-29"/>
    </defs>
    <g transform="translate(146.4 381.888)scale(0.12 -0.12)">
     <use xlink:href="#BitstreamVeraSans-Roman-50"/>
     <use x="60.302734375" xlink:href="#BitstreamVeraSans-Roman-48"/>
     <use x="135.498046875" xlink:href="#BitstreamVeraSans-Roman-4f"/>
     <use x="214.208984375" xlink:href="#BitstreamVeraSans-Roman-4e"/>
     <use x="289.013671875" xlink:href="#BitstreamVeraSans-Roman-4f"/>
     <use x="367.724609375" xlink:href="#BitstreamVeraSans-Roman-4e"/>
     <use x="442.529296875" xlink:href="#BitstreamVeraSans-Roman-53"/>
     <use x="506.005859375" xlink:href="#BitstreamVeraSans-Roman-20"/>
     <use x="537.79296875" xlink:href="#BitstreamVeraSans-Roman-2d"/>
     <use x="573.876953125" xlink:href="#BitstreamVeraSans-Roman-20"/>
     <use x="605.6640625" xlink:href="#BitstreamVeraSans-Roman-57"/>
     <use x="704.541015625" xlink:href="#BitstreamVeraSans-Roman-45"/>
     <use x="767.724609375" xlink:href="#BitstreamVeraSans-Roman-41"/>
     <use x="836.1328125" xlink:href="#BitstreamVeraSans-Roman-4b"/>
     <use x="901.708984375" xlink:href="#BitstreamVeraSans-Roman-20"/>
     <use x="933.49609375" xlink:href="#BitstreamVeraSans-Roman-4c"/>
     <use x="989.208984375" xlink:href="#BitstreamVeraSans-Roman-49"/>
     <use x="1018.701171875" xlink:href="#BitstreamVeraSans-Roman-4e"/>
     <use x="1093.505859375" xlink:href="#BitstreamVeraSans-Roman-4b"/>
     <use x="1159.08203125" xlink:href="#BitstreamVeraSans-Roman-20"/>
     <use x="1190.869140625" xlink:href="#BitstreamVeraSans-Roman-42"/>
     <use x="1259.47265625" xlink:href="#BitstreamVeraSans-Roman-45"/>
     <use x="1322.65625" xlink:href="#BitstreamVeraSans-Roman-54"/>
     <use x="1383.740234375" xlink:href="#BitstreamVeraSans-Roman-57"/>
     <use x="1482.6171875" xlink:href="#BitstreamVeraSans-Roman-45"/>
     <use x="1545.80078125" xlink:href="#BitstreamVeraSans-Roman-45"/>
     <use x="1608.984375" xlink:href="#BitstreamVeraSans-Roman-4e"/>
     <use x="1683.7890625" xlink:href="#BitstreamVeraSans-Roman-20"/>
     <use x="1715.576171875" xlink:href="#BitstreamVeraSans-Roman-45"/>
     <use x="1778.759765625" xlink:href="#BitstreamVeraSans-Roman-4c"/>
     <use x="1834.47265625" xlink:href="#BitstreamVeraSans-Roman-45"/>
     <use x="1897.65625" xlink:href="#BitstreamVeraSans-Roman-43"/>
     <use x="1967.48046875" xlink:href="#BitstreamVeraSans-Roman-54"/>
     <use x="2028.564453125" xlink:href="#BitstreamVeraSans-Roman-52"/>
     <use x="2098.046875" xlink:href="#BitstreamVeraSans-Roman-4f"/>
     <use x="2176.7578125" xlink:href="#BitstreamVeraSans-Roman-4e"/>
     <use x="2251.5625" xlink:href="#BitstreamVeraSans-Roman-53"/>
     <use x="2315.0390625" xlink:href="#BitstreamVeraSans-Roman-20"/>
     <use x="2346.826171875" xlink:href="#BitstreamVeraSans-Roman-41"/>
     <use x="2415.234375" xlink:href="#BitstreamVeraSans-Roman-4e"/>
     <use x="2490.0390625" xlink:href="#BitstreamVeraSans-Roman-44"/>
     <use x="2567.041015625" xlink:href="#BitstreamVeraSans-Roman-20"/>
     <use x="2598.828125" xlink:href="#BitstreamVeraSans-Roman-4c"/>
     <use x="2654.572265625" xlink:href="#BitstreamVeraSans-Roman-41"/>
     <use x="2722.87109375" xlink:href="#BitstreamVeraSans-Roman-54"/>
     <use x="2783.939453125" xlink:href="#BitstreamVeraSans-Roman-54"/>
     <use x="2845.0234375" xlink:href="#BitstreamVeraSans-Roman-49"/>
     <use x="2874.515625" xlink:href="#BitstreamVeraSans-Roman-43"/>
     <use x="2944.33984375" xlink:href="#BitstreamVeraSans-Roman-45"/>
     <use x="3007.5234375" xlink:href="#BitstreamVeraSans-Roman-20"/>
     <use x="3039.310546875" xlink:href="#BitstreamVeraSans-Roman-28"/>
     <use x="3078.32421875" xlink:href="#BitstreamVeraSans-Roman-48"/>
     <use x="3153.51953125" xlink:href="#BitstreamVeraSans-Roman-45"/>
     <use x="3216.703125" xlink:href="#BitstreamVeraSans-Roman-41"/>
     <use x="3285.001953125" xlink:href="#BitstreamVeraSans-Roman-54"/>
     <use x="3346.0859375" xlink:href="#BitstreamVeraSans-Roman-20"/>
     <use x="3377.873046875" xlink:href="#BitstreamVeraSans-Roman-53"/>
     <use x="3441.349609375" xlink:href="#BitstreamVeraSans-Roman-49"/>
     <use x="3470.841796875" xlink:href="#BitstreamVeraSans-Roman-4e"/>
     <use x="3545.646484375" xlink:href="#BitstreamVeraSans-Roman-4b"/>
     <use x="3611.22265625" xlink:href="#BitstreamVeraSans-Roman-29"/>
    </g>
   </g>
  </g>
  <g id="text_9">
   <!-- CALORIMETER -->
   <g transform="translate(187.9240625 29.915625)scale(0.28 -0.28)">
    <use xlink:href="#BitstreamVeraSans-Roman-43"/>
    <use x="69.82421875" xlink:href="#BitstreamVeraSans-Roman-41"/>
    <use x="138.232421875" xlink:href="#BitstreamVeraSans-Roman-4c"/>
    <use x="193.8984375" xlink:href="#BitstreamVeraSans-Roman-4f"/>
    <use x="272.609375" xlink:href="#BitstreamVeraSans-Roman-52"/>
    <use x="342.091796875" xlink:href="#BitstreamVeraSans-Roman-49"/>
    <use x="371.583984375" xlink:href="#BitstreamVeraSans-Roman-4d"/>
    <use x="457.86328125" xlink:href="#BitstreamVeraSans-Roman-45"/>
    <use x="521.046875" xlink:href="#BitstreamVeraSans-Roman-54"/>
    <use x="582.130859375" xlink:href="#BitstreamVeraSans-Roman-45"/>
    <use x="645.314453125" xlink:href="#BitstreamVeraSans-Roman-52"/>
   </g>
  </g>
 </g>
 <defs>
  <clipPath id="pcc6799f02e">
   <rect height="345.6" width="446.4" x="72.0" y="43.2"/>
  </clipPath>
 </defs>
</svg>
